<svg height="148.1" viewBox="0 0 500 148.1" width="500" xmlns="http://www.w3.org/2000/svg"><path d="m482.2 148.1h-464.7a17.5 17.5 0 0 1 -17.5-17.5v-113.1a17.6 17.6 0 0 1 17.5-17.5h464.7a17.8 17.8 0 0 1 17.8 17.5v113.1a17.7 17.7 0 0 1 -17.8 17.5z" fill="#a6a6a6"/><path d="m496.4 130.6a14.1 14.1 0 0 1 -14.2 14.2h-464.7a14.2 14.2 0 0 1 -14.2-14.2v-113.1a14.3 14.3 0 0 1 14.2-14.2h464.7a14.2 14.2 0 0 1 14.2 14.2z"/><g fill="#fff"><path d="m111.6 73.3c-.1-12 9.8-17.8 10.2-18a22 22 0 0 0 -17.3-9.4c-7.3-.8-14.4 4.4-18.1 4.4s-9.5-4.3-15.6-4.2a22.8 22.8 0 0 0 -19.4 11.8c-8.4 14.6-2.2 35.9 5.9 47.7 4 5.7 8.7 12.1 14.8 11.9s8.3-3.8 15.6-3.8 9.3 3.8 15.6 3.7 10.5-5.8 14.4-11.6a50.9 50.9 0 0 0 6.6-13.4c-.2-.1-12.6-4.8-12.7-19.1z"/><path d="m99.7 38.2c3.3-4.1 5.5-9.6 4.9-15.2-4.7.2-10.6 3.3-13.9 7.2s-5.7 9.2-5 14.6c5.3.4 10.7-2.6 14-6.6z"/><path d="m198.7 116.7h-8.4l-4.6-14.5h-16l-4.4 14.5h-8.2l15.8-49.3h9.8zm-14.4-20.6-4.2-12.8c-.4-1.4-1.3-4.5-2.5-9.3h-.1q-.7 3.1-2.4 9.3l-4.1 12.8z"/><path d="m239.5 98.5c0 6-1.6 10.8-4.9 14.3a14.4 14.4 0 0 1 -10.9 4.7c-4.7 0-8-1.7-10.1-5.1h-.1v18.8h-7.9v-38.4q0-5.7-.3-11.7h6.9l.5 5.7h.1c2.6-4.3 6.6-6.4 12-6.4a13.3 13.3 0 0 1 10.5 5c2.8 3.3 4.2 7.7 4.2 13.1zm-8.1.3a14.5 14.5 0 0 0 -2.3-8.6 8.5 8.5 0 0 0 -12.2-1.6 9 9 0 0 0 -3.1 5.1 12.9 12.9 0 0 0 -.3 2.4v6a9.4 9.4 0 0 0 2.3 6.5 8 8 0 0 0 6.2 2.7 8.2 8.2 0 0 0 7-3.5 15.4 15.4 0 0 0 2.4-9z"/><path d="m280.4 98.5c0 6-1.7 10.8-4.9 14.3a14.6 14.6 0 0 1 -10.9 4.7c-4.7 0-8.1-1.7-10.1-5.1h-.2v18.8h-7.9v-38.4q0-5.7-.3-11.7h7l.4 5.7h.2c2.6-4.3 6.6-6.4 12-6.4a13.3 13.3 0 0 1 10.5 5c2.8 3.3 4.2 7.7 4.2 13.1zm-8.1.3a15.3 15.3 0 0 0 -2.3-8.6 8.5 8.5 0 0 0 -12.2-1.6 9 9 0 0 0 -3.1 5.1 14.8 14.8 0 0 0 -.4 2.4v6a9.5 9.5 0 0 0 2.4 6.5 8.5 8.5 0 0 0 13.1-.8c1.7-2.3 2.5-5.3 2.5-9z"/><path d="m326.1 102.9a13.1 13.1 0 0 1 -4.4 10.2c-3.2 2.9-7.7 4.3-13.4 4.3s-9.6-1-12.8-3.1l1.8-6.5a21.7 21.7 0 0 0 11.4 3.1 11.2 11.2 0 0 0 7-2 6.8 6.8 0 0 0 2.5-5.4 6.6 6.6 0 0 0 -2.1-5c-1.3-1.4-3.6-2.7-6.8-3.9q-12.9-4.8-12.9-14.1a12.7 12.7 0 0 1 4.5-10c3-2.5 7.1-3.8 12.1-3.8s8.2.7 11.2 2.3l-2 6.4a19.5 19.5 0 0 0 -9.4-2.2 9.7 9.7 0 0 0 -6.5 2 5.6 5.6 0 0 0 -2 4.5 6.1 6.1 0 0 0 2.2 4.8 28.5 28.5 0 0 0 7.2 3.8c4.3 1.7 7.4 3.7 9.4 6a12.7 12.7 0 0 1 3 8.6z"/><path d="m352.2 87.1h-8.7v17.2c0 4.4 1.5 6.6 4.6 6.6a11.6 11.6 0 0 0 3.5-.4l.2 6a17.1 17.1 0 0 1 -6.1.9c-3.2 0-5.6-.9-7.3-2.8s-2.7-5.1-2.7-9.6v-17.9h-5.2v-6h5.2v-6.5l7.8-2.3v8.8h8.7z"/><path d="m391.4 98.6c0 5.5-1.5 10-4.6 13.5s-7.6 5.4-13.1 5.4-9.3-1.7-12.4-5.2a19 19 0 0 1 -4.7-13.1q0-8.2 4.8-13.5c3.2-3.5 7.5-5.3 12.9-5.3s9.4 1.7 12.6 5.2 4.5 7.7 4.5 13zm-8.1.3a15.6 15.6 0 0 0 -2.2-8.5 7.7 7.7 0 0 0 -7.1-4.2 8 8 0 0 0 -7.2 4.2 18.5 18.5 0 0 0 0 17.1 8 8 0 0 0 7.2 4.2 7.9 7.9 0 0 0 7.1-4.3 16.8 16.8 0 0 0 2.2-8.5z"/><path d="m417.1 88.1a10.1 10.1 0 0 0 -2.5-.2 7.3 7.3 0 0 0 -6.4 3.1 12 12 0 0 0 -2 7v18.7h-7.9v-24.4c0-4.1-.1-7.8-.3-11.2h7l.3 6.8h.2a11.9 11.9 0 0 1 3.9-5.6 9.5 9.5 0 0 1 5.7-1.9l2 .2z"/><path d="m452.4 97.2a18.6 18.6 0 0 1 -.3 3.6h-23.6a10.2 10.2 0 0 0 3.4 8.1 12 12 0 0 0 7.7 2.4 26.9 26.9 0 0 0 9.6-1.6l1.3 5.4a29.6 29.6 0 0 1 -12 2.2q-8.2 0-12.9-4.8c-3.2-3.3-4.8-7.6-4.8-13.1a20.8 20.8 0 0 1 4.4-13.4 15.2 15.2 0 0 1 12.5-5.7c5.1 0 9 1.9 11.6 5.7a19.4 19.4 0 0 1 3.1 11.2zm-7.5-2a10.9 10.9 0 0 0 -1.5-6.1 7 7 0 0 0 -6.3-3.3 7.6 7.6 0 0 0 -6.3 3.2 11.7 11.7 0 0 0 -2.3 6.2z"/><path d="m181.7 37.1c0 4.3-1.3 7.6-3.9 9.8s-5.9 3.1-10.4 3.1a43.9 43.9 0 0 1 -5.6-.3v-23.8a34.1 34.1 0 0 1 6.6-.5q6.4 0 9.6 2.7c2.5 2.1 3.7 5.1 3.7 9zm-4.1.1a8.9 8.9 0 0 0 -2.3-6.5 8.9 8.9 0 0 0 -6.5-2.3 14.5 14.5 0 0 0 -3.2.3v18.1h2.7c2.9 0 5.2-.8 6.8-2.5s2.5-4 2.5-7.1z"/><path d="m203.4 40.9a9.6 9.6 0 0 1 -2.3 6.6 8.2 8.2 0 0 1 -6.4 2.6 8 8 0 0 1 -6.2-2.5 9.2 9.2 0 0 1 -2.2-6.4 9.4 9.4 0 0 1 2.3-6.7 8.4 8.4 0 0 1 6.4-2.6 7.9 7.9 0 0 1 6.1 2.6 9.1 9.1 0 0 1 2.3 6.4zm-4.1.1a7.6 7.6 0 0 0 -1-4.1 4 4 0 0 0 -7 0 7.7 7.7 0 0 0 -1.1 4.2 7.6 7.6 0 0 0 1.1 4.1 3.8 3.8 0 0 0 3.5 2.1 4 4 0 0 0 3.5-2.1 8.2 8.2 0 0 0 1-4.2z"/><path d="m232.5 32.3-5.5 17.5h-3.6l-2.2-7.6a39.5 39.5 0 0 1 -1.4-5.7h-.1a39.5 39.5 0 0 1 -1.4 5.7l-2.4 7.6h-3.6l-5.1-17.5h4l1.9 8.3c.5 2 .9 3.8 1.2 5.6h.1c.3-1.5.8-3.3 1.4-5.6l2.5-8.3h3.2l2.3 8.1a48.5 48.5 0 0 1 1.4 5.8h.1c.3-1.8.7-3.7 1.2-5.8l2.2-8.1z"/><path d="m252.6 49.8h-3.9v-10c0-3.1-1.2-4.7-3.5-4.7a3.6 3.6 0 0 0 -2.8 1.3 4.6 4.6 0 0 0 -1.1 3v10.4h-3.9v-12.5c0-1.5 0-3.2-.1-5h3.4l.2 2.7h.1a5.7 5.7 0 0 1 2-2.1 6.8 6.8 0 0 1 3.5-1 6 6 0 0 1 4.1 1.6 7.8 7.8 0 0 1 2 5.8z"/><path d="m263.3 49.8h-3.9v-25.5h3.9z"/><path d="m286.1 40.9a9.2 9.2 0 0 1 -2.3 6.6 8 8 0 0 1 -6.4 2.6 7.8 7.8 0 0 1 -6.1-2.5 9.3 9.3 0 0 1 -2.3-6.4 9.5 9.5 0 0 1 2.4-6.7 8.3 8.3 0 0 1 6.3-2.6 8.1 8.1 0 0 1 6.2 2.6 9.1 9.1 0 0 1 2.2 6.4zm-4 .1a7.6 7.6 0 0 0 -1-4.1 3.8 3.8 0 0 0 -3.5-2.1 3.9 3.9 0 0 0 -3.6 2.1 7.7 7.7 0 0 0 -1 4.2 7.6 7.6 0 0 0 1 4.1 4 4 0 0 0 3.6 2.1 3.8 3.8 0 0 0 3.4-2.1 7.3 7.3 0 0 0 1.1-4.2z"/><path d="m304.9 49.8h-3.5l-.3-2.1h-.1a6 6 0 0 1 -5.1 2.4 5.3 5.3 0 0 1 -3.9-1.5 4.8 4.8 0 0 1 -1.4-3.6 5.6 5.6 0 0 1 2.7-4.9 13.5 13.5 0 0 1 7.5-1.6v-.4c0-2.3-1.2-3.4-3.6-3.4a7.8 7.8 0 0 0 -4.6 1.3l-.8-2.6a11.6 11.6 0 0 1 6-1.5c4.6 0 6.9 2.4 6.9 7.3v6.4c0 1.7.1 3.1.2 4.2zm-4-6v-2.7c-4.3-.1-6.4 1.1-6.4 3.5a2.4 2.4 0 0 0 .7 2 2.6 2.6 0 0 0 1.9.7 4.1 4.1 0 0 0 2.4-.8 3 3 0 0 0 1.3-2.1 1.3 1.3 0 0 0 .1-.6z"/><path d="m327 49.8h-3.5v-2.9h-.2c-1.1 2.2-2.9 3.2-5.6 3.2a6.6 6.6 0 0 1 -5.2-2.4 9.8 9.8 0 0 1 -2.1-6.5 10 10 0 0 1 2.3-6.8 6.6 6.6 0 0 1 5.4-2.5c2.3 0 4 .8 4.9 2.4h.1v-10h3.8v20.7c-.1 1.7 0 3.3.1 4.8zm-4-7.4v-2.9c0-.5-.1-.9-.1-1.2a4.3 4.3 0 0 0 -1.5-2.4 3.7 3.7 0 0 0 -2.5-1 4.1 4.1 0 0 0 -3.5 1.8 7.4 7.4 0 0 0 -1.2 4.4 7 7 0 0 0 1.2 4.2 4.1 4.1 0 0 0 3.4 1.7 3.6 3.6 0 0 0 3-1.4 4.7 4.7 0 0 0 1.2-3.2z"/><path d="m360.2 40.9a9.6 9.6 0 0 1 -2.3 6.6 8.2 8.2 0 0 1 -6.4 2.6 7.6 7.6 0 0 1 -6.1-2.5 8.8 8.8 0 0 1 -2.3-6.4 9.9 9.9 0 0 1 2.3-6.7 8.4 8.4 0 0 1 6.4-2.6 7.9 7.9 0 0 1 6.1 2.6 9.1 9.1 0 0 1 2.3 6.4zm-4 .1a7.6 7.6 0 0 0 -1.1-4.1 4 4 0 0 0 -7 0 7.7 7.7 0 0 0 -1.1 4.2 7.6 7.6 0 0 0 1.1 4.1 3.8 3.8 0 0 0 3.5 2.1 4 4 0 0 0 3.5-2.1 8.2 8.2 0 0 0 1.1-4.2z"/><path d="m381 49.8h-3.8v-10c0-3.1-1.2-4.7-3.6-4.7a3.9 3.9 0 0 0 -2.8 1.3 4.5 4.5 0 0 0 -1 3v10.4h-3.9v-12.5c0-1.5-.1-3.2-.2-5h3.5v2.7h.1a7 7 0 0 1 2.1-2.1 6.8 6.8 0 0 1 3.5-1 5.6 5.6 0 0 1 4 1.6c1.4 1.3 2 3.2 2 5.8z"/><path d="m407.2 35.2h-4.3v8.5c0 2.1.8 3.2 2.3 3.2a4.4 4.4 0 0 0 1.7-.2v3a8.7 8.7 0 0 1 -3 .4 4.6 4.6 0 0 1 -3.6-1.4c-.9-.9-1.3-2.5-1.3-4.7v-8.8h-2.6v-2.9h2.6v-3.2l3.8-1.2v4.4h4.3z"/><path d="m427.7 49.8h-3.9v-10c0-3.1-1.1-4.7-3.5-4.7a3.7 3.7 0 0 0 -3.7 2.8 4.6 4.6 0 0 0 -.2 1.4v10.5h-3.8v-25.5h3.8v10.5h.1a6 6 0 0 1 5.3-2.9 5.3 5.3 0 0 1 3.9 1.6c1.4 1.3 2 3.3 2 5.9z"/><path d="m448.9 40.2a9.7 9.7 0 0 1 -.1 1.8h-11.7a5.1 5.1 0 0 0 1.7 3.9 6 6 0 0 0 3.8 1.2 11.6 11.6 0 0 0 4.7-.8l.6 2.7a14.6 14.6 0 0 1 -5.8 1.1 8.6 8.6 0 0 1 -6.4-2.4 9 9 0 0 1 -2.3-6.4 9.6 9.6 0 0 1 2.2-6.6 7.3 7.3 0 0 1 6.1-2.8 6.4 6.4 0 0 1 5.7 2.8 9.6 9.6 0 0 1 1.5 5.5zm-3.7-1a5.6 5.6 0 0 0 -.7-3 3.4 3.4 0 0 0 -3.1-1.6 3.6 3.6 0 0 0 -3.1 1.6 5.8 5.8 0 0 0 -1.2 3z"/></g></svg>