<svg height="148.1" viewBox="0 0 499.9 148.1" width="499.9" xmlns="http://www.w3.org/2000/svg" xmlns:xlink="http://www.w3.org/1999/xlink"><linearGradient id="a" gradientUnits="userSpaceOnUse" x1="115.11" x2="25.59" y1="74.05" y2="74.05"><stop offset="0" stop-color="#fee000"/><stop offset=".42" stop-color="#fbbc0e"/><stop offset=".78" stop-color="#faa418"/><stop offset="1" stop-color="#f99b1c"/></linearGradient><linearGradient id="b" gradientUnits="userSpaceOnUse" x1="91.88" x2="7.68" y1="82.54" y2="166.74"><stop offset="0" stop-color="#ef4547"/><stop offset="1" stop-color="#c6186d"/></linearGradient><linearGradient id="c" gradientUnits="userSpaceOnUse" x1="7.31" x2="76.05" y1="-19.01" y2="49.73"><stop offset="0" stop-color="#279e6f"/><stop offset=".04" stop-color="#2ba06f"/><stop offset=".46" stop-color="#53b26c"/><stop offset=".8" stop-color="#6bbd6a"/><stop offset="1" stop-color="#74c169"/></linearGradient><rect height="148.11" rx="18.5" width="499.9"/><path d="m481.3 3a15.5 15.5 0 0 1 15.6 15.5v111.1a15.5 15.5 0 0 1 -15.6 15.5h-462.8a15.4 15.4 0 0 1 -15.5-15.5v-111.1a15.4 15.4 0 0 1 15.5-15.5zm0-3h-462.8a18.5 18.5 0 0 0 -18.5 18.5v111.1a18.5 18.5 0 0 0 18.5 18.5h462.8a18.6 18.6 0 0 0 18.6-18.5v-111.1a18.6 18.6 0 0 0 -18.6-18.5z" fill="#a7a6a6"/><g fill="#fff"><path d="m175.6 37.9a9.7 9.7 0 0 1 -2.8 7.4 10.7 10.7 0 0 1 -8.1 3.3 11.4 11.4 0 0 1 -11.6-11.6 10.8 10.8 0 0 1 3.4-8.2 10.8 10.8 0 0 1 8.2-3.4 10.2 10.2 0 0 1 4.5 1 9.1 9.1 0 0 1 3.5 2.4l-2 2a7.2 7.2 0 0 0 -6-2.6 8.5 8.5 0 0 0 -6.1 2.4 8.7 8.7 0 0 0 -2.6 6.4 8.4 8.4 0 0 0 2.6 6.4 8.2 8.2 0 0 0 6.1 2.5 8.4 8.4 0 0 0 6.2-2.5 7.1 7.1 0 0 0 1.8-4.5h-8v-2.6h10.7a8.8 8.8 0 0 1 .2 1.6z" stroke="#fff" stroke-miterlimit="10" stroke-width=".74"/><path d="m192.6 28.6h-10.1v7.1h9.1v2.7h-9.1v7h10.1v2.7h-12.9v-22.2h12.9z" stroke="#fff" stroke-miterlimit="10" stroke-width=".74"/><path d="m204.7 48.1h-2.9v-19.5h-6.2v-2.7h15.3v2.7h-6.2z" stroke="#fff" stroke-miterlimit="10" stroke-width=".74"/><path d="m221.9 48.1v-22.2h2.9v22.2z" stroke="#fff" stroke-miterlimit="10" stroke-width=".74"/><path d="m237.4 48.1h-2.8v-19.5h-6.2v-2.7h15.3v2.7h-6.3z" stroke="#fff" stroke-miterlimit="10" stroke-width=".74"/><path d="m272.6 45.3a11.1 11.1 0 0 1 -8.2 3.3 10.9 10.9 0 0 1 -8.1-3.3 11.5 11.5 0 0 1 -3.3-8.3 11.2 11.2 0 0 1 3.3-8.2 10.6 10.6 0 0 1 8.1-3.4 10.7 10.7 0 0 1 8.1 3.4 11.4 11.4 0 0 1 3.3 8.2 11.8 11.8 0 0 1 -3.2 8.3zm-14.2-1.9a8.5 8.5 0 0 0 12 0 8.6 8.6 0 0 0 2.5-6.4 8.2 8.2 0 0 0 -2.5-6.3 8.4 8.4 0 0 0 -12 0 8.2 8.2 0 0 0 -2.5 6.3 8.6 8.6 0 0 0 2.5 6.4z" stroke="#fff" stroke-miterlimit="10" stroke-width=".74"/><path d="m279.8 48.1v-22.2h3.5l10.8 17.3h.1v-17.3h2.8v22.2h-3l-11.3-18.1h-.1v18.1z" stroke="#fff" stroke-miterlimit="10" stroke-width=".74"/><path d="m252.3 80.5a15.8 15.8 0 1 0 15.8 15.8 15.6 15.6 0 0 0 -15.8-15.8zm0 25.3c-4.8 0-8.9-3.9-8.9-9.5s4.1-9.6 8.9-9.6 8.9 3.9 8.9 9.6-4.1 9.5-8.9 9.5zm-34.5-25.3a15.8 15.8 0 1 0 15.8 15.8 15.6 15.6 0 0 0 -15.8-15.8zm0 25.3c-4.8 0-8.9-3.9-8.9-9.5s4.1-9.6 8.9-9.6 8.9 3.9 8.9 9.6-4.1 9.5-8.9 9.5zm-41-20.4v6.7h16a14.3 14.3 0 0 1 -3.7 8.4 16.3 16.3 0 0 1 -12.3 4.9 17.8 17.8 0 0 1 0-35.6 16.8 16.8 0 0 1 12 4.8l4.7-4.7a23 23 0 0 0 -16.7-6.8 24.8 24.8 0 0 0 -24.8 24.5c0 13.5 11.3 24.4 24.8 24.4 7.3 0 12.7-2.4 17-6.8s5.8-10.6 5.8-15.7a25.4 25.4 0 0 0 -.3-4.1zm167.7 5.2c-1.3-3.6-5.3-10.1-13.4-10.1s-14.9 6.4-14.9 15.8a15.4 15.4 0 0 0 15.6 15.7 15.9 15.9 0 0 0 13.2-6.9l-5.4-3.6a9 9 0 0 1 -7.8 4.3 8 8 0 0 1 -7.6-4.7l21.1-8.7zm-21.4 5.2a8.6 8.6 0 0 1 8.2-9.2c2.7 0 5.1 1.4 5.8 3.4zm-17.2 15.3h7v-46.3h-7zm-11.3-27h-.2a11 11 0 0 0 -8.3-3.6c-7.9 0-15.1 7-15.1 15.8s7.2 15.7 15.1 15.7a10.9 10.9 0 0 0 8.3-3.5h.2v2.2c0 6-3.2 9.3-8.4 9.3a8.7 8.7 0 0 1 -7.9-5.6l-6.1 2.5a15.3 15.3 0 0 0 14 9.3c8.1 0 15-4.8 15-16.4v-28.3h-6.6zm-7.9 21.7c-4.8 0-8.8-4-8.8-9.5s4-9.6 8.8-9.6 8.4 4.1 8.4 9.6-3.7 9.5-8.4 9.5zm90.3-41h-16.6v46.3h6.9v-17.6h9.7c7.6 0 15.1-5.5 15.1-14.3s-7.5-14.4-15.1-14.4zm.1 22.3h-9.8v-15.9h9.8a8 8 0 1 1 0 15.9zm42.7-6.6c-5 0-10.2 2.2-12.3 7l6.1 2.6c1.3-2.6 3.8-3.4 6.3-3.4s7.3 2.2 7.3 6v.4a15.3 15.3 0 0 0 -7.2-1.7c-6.6 0-13.3 3.6-13.3 10.4s5.4 10.2 11.5 10.2a9.7 9.7 0 0 0 8.8-4.6h.2v3.6h6.7v-17.7c0-8.3-6.1-12.8-14.1-12.8zm-.8 25.3c-2.3 0-5.4-1.1-5.4-3.9s3.9-5 7.3-5a12.1 12.1 0 0 1 6.3 1.6 8.3 8.3 0 0 1 -8.2 7.3zm39.2-24.3-7.9 20h-.3l-8.2-20h-7.4l12.3 28-7 15.6h7.2l19-43.6zm-62.2 29.6h6.9v-46.3h-6.9z"/></g><path d="m38.6 27.9a8.1 8.1 0 0 0 -1.7 5.2v81.9a7.9 7.9 0 0 0 1.7 5.2l.3.2 45.8-45.8v-1.1l-45.8-45.8z" fill="#5bc9f4"/><path d="m100 89.9-15.3-15.3v-1.1l15.3-15.3.4.2 18.1 10.3c5.1 2.9 5.1 7.8 0 10.7l-18.1 10.3z" fill="url(#a)"/><path d="m100.4 89.7-15.7-15.6-46.1 46.1c1.7 1.8 4.6 2 7.7.2z" fill="url(#b)"/><path d="m100.4 58.4-54.1-30.7c-3.1-1.8-6-1.6-7.7.2l46.1 46.2z" fill="url(#c)"/></svg>