<svg xmlns="http://www.w3.org/2000/svg" width="2in" height="2in" viewBox="0 0 146 146"><circle cx="73" cy="73" r="68" fill="#fff" stroke="#bc2056" stroke-miterlimit="10" stroke-width="10"/><path fill="#bc2056" d="M96.4 45.9h-6.2v-1.4a4.7 4.7 0 0 0-4.7-4.7H60.6a4.7 4.7 0 0 0-4.8 4.7v1.4h-6.2a6.3 6.3 0 0 0-6.3 6.3v16.2a6.3 6.3 0 0 0 6.3 6.3h8.2a13 13 0 0 0 11 6.2h1.6v20H55.9v5.3h34.2v-5.3H75.7v-20h1.5a12.9 12.9 0 0 0 11-6.2h8.2a6.3 6.3 0 0 0 6.3-6.3V52.2a6.3 6.3 0 0 0-6.3-6.3zM51.8 69.5a3.3 3.3 0 0 1-3.3-3.3V54.5a3.4 3.4 0 0 1 3.3-3.4h4v16.8a8.8 8.8 0 0 0 .2 1.6zm45.7-3.3a3.3 3.3 0 0 1-3.3 3.3h-4.1a8.6 8.6 0 0 0 .1-1.6V51.1h4a3.4 3.4 0 0 1 3.3 3.4z"/></svg>