<svg xmlns="http://www.w3.org/2000/svg" width="1.6in" height="1.6in" viewBox="0 0 116 116"><defs><clipPath id="a"><rect width="116" height="116" fill="none" rx="18.3" ry="18.3"/></clipPath></defs><g clip-path="url(#a)"><path fill="#bc2056" d="M-13.5-11.8h153.2v173.28H-13.5z"/><path fill="#c07748" d="M99.9 10.8c-.1 7.9-.2 35.2-.3 35.5l-6.2-3.7-20-11.7-6.2-3.6L98.1 9.7a1.2 1.2 0 0 1 1.8 1.1z"/><path fill="#f2c099" d="M93.6 27.1l-.2 15.5-20-11.7 13.7-7.7a4.3 4.3 0 0 1 6.5 3.9z"/><path fill="#c07748" d="M14.4 9.6c0 7.9.2 35.2.3 35.5l6.2-3.7 20-11.7L47 26 16.2 8.5a1.2 1.2 0 0 0-1.8 1.1z"/><path fill="#f2c099" d="M20.6 25.8l.3 15.6 20-11.7L27.2 22a4.4 4.4 0 0 0-6.6 3.8z"/><rect width="64.6" height="21.34" x="27.1" y="90.7" fill="#4f3a59" rx="9.2" ry="9.2"/><path fill="#c07748" d="M45.1 89.8h29v24.66h-29z"/><path fill="#eb9158" d="M103.1 64.2c0 25.9-18.2 35.3-43.7 35.3s-48.6-10-48.6-35.9c0-32.1 20.7-42.5 46.1-42.5s46.2 11.7 46.2 43.1z"/><path fill="#bc2056" d="M63.3 128.2h-7.7a.4.4 0 0 1-.4-.4l-5.5-17.3a.9.9 0 0 1 .8-.8h17.9a.9.9 0 0 1 .8.8l-5.6 17.3c0 .2-.1.4-.3.4z"/><path fill="#342336" d="M58.3 131l-31.4-7.8c-.2 0-.3-.2-.3-.5l.6-25.4c0-.2.2-.4.4-.3l14.6 3.3c11 2.5 18.4 16 16.5 30.3a.4.4 0 0 1-.4.4z"/><path fill="#342336" d="M60.7 130.9l30.4-7.7a.5.5 0 0 0 .4-.6l.2-25.6a.5.5 0 0 0-.5-.5l-14.4 3.3c-11.1 2.5-18.5 16.2-16.6 30.6a.5.5 0 0 0 .5.5zm34.1-59.6a.5.5 0 0 1 .1-.8l10.5-9.5a.5.5 0 0 1 .7 0 .6.6 0 0 1 0 .8l-10.5 9.5a.6.6 0 0 1-.8 0zm1.7 2.7a.5.5 0 0 1 .5-.5h14.2a.5.5 0 0 1 .5.5.6.6 0 0 1-.5.6H97a.5.5 0 0 1-.5-.6zm-.6 2.8a.6.6 0 0 1 .8 0l9.5 10.5a.6.6 0 0 1-.1.7c-.2.3-.5.2-.7 0l-9.5-10.5a.5.5 0 0 1 0-.7zm-77.1-5.1a.6.6 0 0 0 0-.8L8.3 61.4a.6.6 0 0 0-.8 0 .6.6 0 0 0 0 .8l10.6 9.5a.5.5 0 0 0 .7 0zm-1.7 2.7c.1-.3-.2-.5-.5-.5H2.4a.5.5 0 0 0-.5.5.6.6 0 0 0 .5.6h14.2a.5.5 0 0 0 .5-.6zm.6 2.8a.5.5 0 0 0-.7 0L7.5 87.7a.6.6 0 0 0 0 .8.6.6 0 0 0 .8-.1l9.5-10.5a.6.6 0 0 0-.1-.7zm41.4 9.5c-4.5 0-7.8-1.1-9.7-3.4a.3.3 0 0 1-.1-.2c-.6-1 .2-1.5.3-1.5s.7-.4 1.5.3 4.4 2.7 8 2.7c0 0 4.4.1 6.9-2.6a1 1 0 0 1 1.4-.3 1 1 0 0 1 .3 1.5c-3.2 3.8-8.6 3.5-8.6 3.5z"/><path fill="#231f20" d="M44 52.1a.5.5 0 0 1-.6-.4c-1.2-2-2.7-3.1-4.3-3.2s-4.6 1.8-5.8 3.7a.7.7 0 0 1-.9.2.6.6 0 0 1-.1-.8c1.3-2.1 3.9-4.4 6.8-4.3s3.6.7 5.3 3.8a.7.7 0 0 1-.2.9zm29.4.2h-.3a.6.6 0 0 1-.1-.8c1.4-2 4-4.3 6.9-4.1s3.6.9 5.3 4a.6.6 0 0 1-.3.8.5.5 0 0 1-.8-.2c-1.2-2.1-2.6-3.3-4.2-3.4s-4.6 1.7-5.9 3.6c-.2.1-.4.2-.6.1z"/><path fill="#342336" d="M95.8 52.8a3.3 3.3 0 1 1 3.3-3.3 3.3 3.3 0 0 1-3.3 3.3zm0-5a1.7 1.7 0 1 0 0 3.4 1.7 1.7 0 1 0 0-3.4z"/><path fill="#342336" d="M99.8 55.7a3.3 3.3 0 1 1 3.3-3.3 3.4 3.4 0 0 1-3.3 3.3zm0-5a1.8 1.8 0 0 0-1.8 1.7 1.7 1.7 0 0 0 1.8 1.7 1.7 1.7 0 0 0 1.7-1.7 1.8 1.8 0 0 0-1.7-1.7z"/><path fill="#342336" d="M102.7 59.8a3.4 3.4 0 1 1 0-6.7 3.4 3.4 0 0 1 0 6.7zm0-5.1a1.8 1.8 0 0 0-1.8 1.7 1.8 1.8 0 0 0 1.8 1.8 1.8 1.8 0 0 0 1.7-1.8 1.8 1.8 0 0 0-1.7-1.7z"/><circle cx="80.4" cy="46.7" r="13.3" fill="#3ac1e3" opacity=".5"/><path fill="#342336" d="M80.4 61.3a14.6 14.6 0 1 1 14.5-14.6 14.6 14.6 0 0 1-14.5 14.6zm0-26.7a12.1 12.1 0 1 0 12.1 12.1 12.1 12.1 0 0 0-12.1-12.1z"/><path fill="#c07748" d="M32.9 73.5c.9-1.3-.9-2.8-.7-3.4a2.4 2.4 0 0 1 3-.8c2.2 1.2 6 3.9 6 3.9s.2.1.1.4-.1.5-.1.6h.4l.5-.3h.3l.4.3c.3.1 5.1 4 6.5 4s3.1-.6 4-2.5a4.1 4.1 0 0 0 .2-2.7c-.1-.4-1.5-2.2-2.3-1.1s.3 1.8.5 2 .8.8.7 1.4-1.1 2.7-6.1-.7a20.6 20.6 0 0 1-2.5-1.8l-.5-.3s-.1 0-.1-.2 0-.3.1-.5 0-.4-.1-.4l-.5.3c-.3.3-.8-.2-3.1-1.9a9.1 9.1 0 0 0-4-1.8 4 4 0 0 0-5.1 4.3c.5 1.4 1.8 2.1 2.4 1.2zm50.9.3c-.9-1.3.9-2.7.7-3.3s-2-1.2-3-.8a57.7 57.7 0 0 0-6 3.9c-.1.1-.2.1-.1.3s.1.5.1.6-.2 0-.4-.1l-.5-.2c-.1-.1-.2 0-.3.1l-.4.2c-.3.2-5.1 4-6.5 4s-3.1-.6-4-2.5a4 4 0 0 1-.2-2.7c.1-.4 1.5-2.1 2.3-1s-.3 1.8-.5 2-.8.8-.7 1.4 1.1 2.6 6.1-.8a21.3 21.3 0 0 0 2.5-1.7l.5-.3c0-.1.1-.1.1-.2s0-.4-.1-.6 0-.3.1-.4l.5.3c.3.4.8-.1 3.1-1.8a9.3 9.3 0 0 1 4-1.9c1.6-.2 3.5.1 4.4 1.6a4.1 4.1 0 0 1 .7 2.8c-.5 1.4-1.8 2-2.4 1.1z"/><path fill="#0c1b27" d="M58.3 72.9c-2.8.1-7.7-5.4-10.1-8.4a4.3 4.3 0 0 1 1.5-6.7 4.6 4.6 0 0 1 2.1-.5h11.8a5.2 5.2 0 0 1 4.8 3.3 3.2 3.2 0 0 1-.4 3c-1.9 2.6-6.8 9.2-9.7 9.3z"/></g></svg>