<svg xmlns="http://www.w3.org/2000/svg" width="2in" height="2in" viewBox="0 0 146 146"><circle cx="73" cy="73" r="68" fill="#fff" stroke="#bc2056" stroke-miterlimit="10" stroke-width="10"/><path fill="#bc2056" d="M103.2 67.3a31.8 31.8 0 0 0-4.8-11.7l4.7-4.7-8-8.1-4.8 4.8a29.8 29.8 0 0 0-11.7-4.9V36H67.2v6.7a30.2 30.2 0 0 0-11.7 4.8l-4.7-4.7-8 8.1 4.6 4.6a30.8 30.8 0 0 0-4.9 11.8H36v11.4h6.5a30.8 30.8 0 0 0 4.9 11.8l-4.6 4.6 8 8.1 4.7-4.7a29.6 29.6 0 0 0 11.7 4.8v6.7h11.4v-6.7a30.8 30.8 0 0 0 11.8-4.9l4.7 4.8 8.1-8.1-4.8-4.7a32.6 32.6 0 0 0 4.8-11.7h6.8V67.3zM74.5 96.4A22.3 22.3 0 1 1 95 75.9a22.4 22.4 0 0 1-20.5 20.5z"/></svg>